<mxfile host="app.diagrams.net" modified="2021-05-17T05:38:11.492Z" agent="5.0 (Macintosh)" etag="f9kgRWzOXvCFm7MF10iu" version="14.3.0" type="github">
  <diagram id="C5RBs43oDa-KdzZeNtuy" name="Page-1">
    <mxGraphModel dx="1047" dy="1677" grid="1" gridSize="10" guides="1" tooltips="1" connect="1" arrows="1" fold="1" page="1" pageScale="1" pageWidth="827" pageHeight="1169" math="0" shadow="0">
      <root>
        <mxCell id="WIyWlLk6GJQsqaUBKTNV-0" />
        <mxCell id="WIyWlLk6GJQsqaUBKTNV-1" parent="WIyWlLk6GJQsqaUBKTNV-0" />
        <mxCell id="WIyWlLk6GJQsqaUBKTNV-2" value="" style="rounded=0;html=1;jettySize=auto;orthogonalLoop=1;fontSize=11;endArrow=block;endFill=0;endSize=8;strokeWidth=1;shadow=0;labelBackgroundColor=none;edgeStyle=orthogonalEdgeStyle;" parent="WIyWlLk6GJQsqaUBKTNV-1" source="WIyWlLk6GJQsqaUBKTNV-3" target="WIyWlLk6GJQsqaUBKTNV-6" edge="1">
          <mxGeometry relative="1" as="geometry" />
        </mxCell>
        <mxCell id="WIyWlLk6GJQsqaUBKTNV-3" value="Deposit" style="rounded=1;whiteSpace=wrap;html=1;fontSize=12;glass=0;strokeWidth=1;shadow=0;" parent="WIyWlLk6GJQsqaUBKTNV-1" vertex="1">
          <mxGeometry x="160" y="80" width="120" height="40" as="geometry" />
        </mxCell>
        <mxCell id="WIyWlLk6GJQsqaUBKTNV-4" value="Yes" style="rounded=0;html=1;jettySize=auto;orthogonalLoop=1;fontSize=11;endArrow=block;endFill=0;endSize=8;strokeWidth=1;shadow=0;labelBackgroundColor=none;edgeStyle=orthogonalEdgeStyle;" parent="WIyWlLk6GJQsqaUBKTNV-1" source="WIyWlLk6GJQsqaUBKTNV-6" target="WIyWlLk6GJQsqaUBKTNV-10" edge="1">
          <mxGeometry y="20" relative="1" as="geometry">
            <mxPoint as="offset" />
          </mxGeometry>
        </mxCell>
        <mxCell id="WIyWlLk6GJQsqaUBKTNV-5" value="No" style="edgeStyle=orthogonalEdgeStyle;rounded=0;html=1;jettySize=auto;orthogonalLoop=1;fontSize=11;endArrow=block;endFill=0;endSize=8;strokeWidth=1;shadow=0;labelBackgroundColor=none;entryX=0;entryY=0.5;entryDx=0;entryDy=0;" parent="WIyWlLk6GJQsqaUBKTNV-1" source="WIyWlLk6GJQsqaUBKTNV-6" target="EGNdU_tA9hTIrxnOJpRJ-1" edge="1">
          <mxGeometry y="10" relative="1" as="geometry">
            <mxPoint as="offset" />
            <mxPoint x="320" y="210" as="targetPoint" />
          </mxGeometry>
        </mxCell>
        <mxCell id="WIyWlLk6GJQsqaUBKTNV-6" value="amount &amp;gt; 0" style="rhombus;whiteSpace=wrap;html=1;shadow=0;fontFamily=Helvetica;fontSize=12;align=center;strokeWidth=1;spacing=6;spacingTop=-4;" parent="WIyWlLk6GJQsqaUBKTNV-1" vertex="1">
          <mxGeometry x="170" y="170" width="100" height="80" as="geometry" />
        </mxCell>
        <mxCell id="WIyWlLk6GJQsqaUBKTNV-8" value="Yes" style="rounded=0;html=1;jettySize=auto;orthogonalLoop=1;fontSize=11;endArrow=block;endFill=0;endSize=8;strokeWidth=1;shadow=0;labelBackgroundColor=none;edgeStyle=orthogonalEdgeStyle;" parent="WIyWlLk6GJQsqaUBKTNV-1" source="WIyWlLk6GJQsqaUBKTNV-10" target="WIyWlLk6GJQsqaUBKTNV-11" edge="1">
          <mxGeometry y="20" relative="1" as="geometry">
            <mxPoint as="offset" />
          </mxGeometry>
        </mxCell>
        <mxCell id="EGNdU_tA9hTIrxnOJpRJ-2" style="edgeStyle=orthogonalEdgeStyle;rounded=0;orthogonalLoop=1;jettySize=auto;html=1;entryX=0.5;entryY=1;entryDx=0;entryDy=0;" edge="1" parent="WIyWlLk6GJQsqaUBKTNV-1" source="WIyWlLk6GJQsqaUBKTNV-10" target="EGNdU_tA9hTIrxnOJpRJ-1">
          <mxGeometry relative="1" as="geometry" />
        </mxCell>
        <mxCell id="EGNdU_tA9hTIrxnOJpRJ-3" value="No" style="edgeLabel;html=1;align=center;verticalAlign=middle;resizable=0;points=[];" vertex="1" connectable="0" parent="EGNdU_tA9hTIrxnOJpRJ-2">
          <mxGeometry x="-0.256" y="-2" relative="1" as="geometry">
            <mxPoint y="-12" as="offset" />
          </mxGeometry>
        </mxCell>
        <mxCell id="WIyWlLk6GJQsqaUBKTNV-10" value="&lt;div&gt;check&lt;/div&gt;&lt;div&gt;allowance&lt;/div&gt;" style="rhombus;whiteSpace=wrap;html=1;shadow=0;fontFamily=Helvetica;fontSize=12;align=center;strokeWidth=1;spacing=6;spacingTop=-4;" parent="WIyWlLk6GJQsqaUBKTNV-1" vertex="1">
          <mxGeometry x="170" y="290" width="100" height="80" as="geometry" />
        </mxCell>
        <mxCell id="EGNdU_tA9hTIrxnOJpRJ-5" value="" style="edgeStyle=orthogonalEdgeStyle;rounded=0;orthogonalLoop=1;jettySize=auto;html=1;" edge="1" parent="WIyWlLk6GJQsqaUBKTNV-1" source="WIyWlLk6GJQsqaUBKTNV-11" target="EGNdU_tA9hTIrxnOJpRJ-4">
          <mxGeometry relative="1" as="geometry" />
        </mxCell>
        <mxCell id="WIyWlLk6GJQsqaUBKTNV-11" value="set balance" style="rounded=1;whiteSpace=wrap;html=1;fontSize=12;glass=0;strokeWidth=1;shadow=0;" parent="WIyWlLk6GJQsqaUBKTNV-1" vertex="1">
          <mxGeometry x="160" y="430" width="120" height="40" as="geometry" />
        </mxCell>
        <mxCell id="EGNdU_tA9hTIrxnOJpRJ-1" value="&lt;div&gt;exit&lt;/div&gt;" style="ellipse;whiteSpace=wrap;html=1;aspect=fixed;rounded=1;shadow=0;glass=0;sketch=0;" vertex="1" parent="WIyWlLk6GJQsqaUBKTNV-1">
          <mxGeometry x="400" y="175" width="70" height="70" as="geometry" />
        </mxCell>
        <mxCell id="EGNdU_tA9hTIrxnOJpRJ-9" value="" style="edgeStyle=orthogonalEdgeStyle;rounded=0;orthogonalLoop=1;jettySize=auto;html=1;" edge="1" parent="WIyWlLk6GJQsqaUBKTNV-1" source="EGNdU_tA9hTIrxnOJpRJ-4" target="EGNdU_tA9hTIrxnOJpRJ-8">
          <mxGeometry relative="1" as="geometry" />
        </mxCell>
        <mxCell id="EGNdU_tA9hTIrxnOJpRJ-4" value="transfer token" style="whiteSpace=wrap;html=1;rounded=1;shadow=0;strokeWidth=1;glass=0;" vertex="1" parent="WIyWlLk6GJQsqaUBKTNV-1">
          <mxGeometry x="160" y="510" width="120" height="40" as="geometry" />
        </mxCell>
        <mxCell id="EGNdU_tA9hTIrxnOJpRJ-11" value="No" style="edgeStyle=orthogonalEdgeStyle;rounded=0;orthogonalLoop=1;jettySize=auto;html=1;" edge="1" parent="WIyWlLk6GJQsqaUBKTNV-1" source="EGNdU_tA9hTIrxnOJpRJ-8" target="EGNdU_tA9hTIrxnOJpRJ-10">
          <mxGeometry y="10" relative="1" as="geometry">
            <mxPoint as="offset" />
          </mxGeometry>
        </mxCell>
        <mxCell id="EGNdU_tA9hTIrxnOJpRJ-13" value="" style="edgeStyle=orthogonalEdgeStyle;rounded=0;orthogonalLoop=1;jettySize=auto;html=1;" edge="1" parent="WIyWlLk6GJQsqaUBKTNV-1" source="EGNdU_tA9hTIrxnOJpRJ-8" target="EGNdU_tA9hTIrxnOJpRJ-12">
          <mxGeometry relative="1" as="geometry" />
        </mxCell>
        <mxCell id="EGNdU_tA9hTIrxnOJpRJ-8" value="&lt;div&gt;epoch&lt;/div&gt;&lt;div&gt;initialized&lt;br&gt;&lt;/div&gt;" style="rhombus;whiteSpace=wrap;html=1;rounded=1;shadow=0;strokeWidth=1;glass=0;arcSize=0;" vertex="1" parent="WIyWlLk6GJQsqaUBKTNV-1">
          <mxGeometry x="180" y="610" width="80" height="80" as="geometry" />
        </mxCell>
        <mxCell id="EGNdU_tA9hTIrxnOJpRJ-14" style="edgeStyle=orthogonalEdgeStyle;rounded=0;orthogonalLoop=1;jettySize=auto;html=1;entryX=1;entryY=0.5;entryDx=0;entryDy=0;" edge="1" parent="WIyWlLk6GJQsqaUBKTNV-1" source="EGNdU_tA9hTIrxnOJpRJ-10" target="EGNdU_tA9hTIrxnOJpRJ-12">
          <mxGeometry relative="1" as="geometry">
            <Array as="points">
              <mxPoint x="435" y="780" />
            </Array>
          </mxGeometry>
        </mxCell>
        <mxCell id="EGNdU_tA9hTIrxnOJpRJ-10" value="Manual Epoch Init" style="whiteSpace=wrap;html=1;rounded=1;shadow=0;strokeWidth=1;glass=0;arcSize=13;" vertex="1" parent="WIyWlLk6GJQsqaUBKTNV-1">
          <mxGeometry x="375" y="630" width="120" height="40" as="geometry" />
        </mxCell>
        <mxCell id="EGNdU_tA9hTIrxnOJpRJ-16" value="" style="edgeStyle=orthogonalEdgeStyle;rounded=0;orthogonalLoop=1;jettySize=auto;html=1;entryX=0.5;entryY=0;entryDx=0;entryDy=0;" edge="1" parent="WIyWlLk6GJQsqaUBKTNV-1" source="EGNdU_tA9hTIrxnOJpRJ-12" target="EGNdU_tA9hTIrxnOJpRJ-17">
          <mxGeometry relative="1" as="geometry">
            <mxPoint x="220" y="860" as="targetPoint" />
          </mxGeometry>
        </mxCell>
        <mxCell id="EGNdU_tA9hTIrxnOJpRJ-12" value="&lt;div&gt;update next epoch&lt;/div&gt;&lt;div&gt;pool size with&lt;/div&gt;&lt;div&gt;token balance&lt;br&gt;&lt;/div&gt;" style="whiteSpace=wrap;html=1;rounded=1;shadow=0;strokeWidth=1;glass=0;arcSize=17;" vertex="1" parent="WIyWlLk6GJQsqaUBKTNV-1">
          <mxGeometry x="160" y="750" width="120" height="60" as="geometry" />
        </mxCell>
        <mxCell id="EGNdU_tA9hTIrxnOJpRJ-20" value="No" style="edgeStyle=orthogonalEdgeStyle;rounded=0;orthogonalLoop=1;jettySize=auto;html=1;entryX=0;entryY=0.5;entryDx=0;entryDy=0;exitX=1;exitY=1;exitDx=0;exitDy=0;" edge="1" parent="WIyWlLk6GJQsqaUBKTNV-1" source="EGNdU_tA9hTIrxnOJpRJ-17" target="EGNdU_tA9hTIrxnOJpRJ-26">
          <mxGeometry x="-0.7091" y="10" relative="1" as="geometry">
            <Array as="points">
              <mxPoint x="350" y="920" />
              <mxPoint x="350" y="985" />
            </Array>
            <mxPoint as="offset" />
          </mxGeometry>
        </mxCell>
        <mxCell id="EGNdU_tA9hTIrxnOJpRJ-22" value="" style="edgeStyle=orthogonalEdgeStyle;rounded=0;orthogonalLoop=1;jettySize=auto;html=1;" edge="1" parent="WIyWlLk6GJQsqaUBKTNV-1" source="EGNdU_tA9hTIrxnOJpRJ-17" target="EGNdU_tA9hTIrxnOJpRJ-21">
          <mxGeometry relative="1" as="geometry" />
        </mxCell>
        <mxCell id="EGNdU_tA9hTIrxnOJpRJ-23" value="Yes" style="edgeLabel;html=1;align=center;verticalAlign=middle;resizable=0;points=[];" vertex="1" connectable="0" parent="EGNdU_tA9hTIrxnOJpRJ-22">
          <mxGeometry x="-0.1333" y="-1" relative="1" as="geometry">
            <mxPoint x="11" as="offset" />
          </mxGeometry>
        </mxCell>
        <mxCell id="EGNdU_tA9hTIrxnOJpRJ-27" style="edgeStyle=orthogonalEdgeStyle;rounded=0;orthogonalLoop=1;jettySize=auto;html=1;entryX=0;entryY=0.5;entryDx=0;entryDy=0;" edge="1" parent="WIyWlLk6GJQsqaUBKTNV-1" source="EGNdU_tA9hTIrxnOJpRJ-17" target="EGNdU_tA9hTIrxnOJpRJ-19">
          <mxGeometry relative="1" as="geometry" />
        </mxCell>
        <mxCell id="EGNdU_tA9hTIrxnOJpRJ-17" value="has check points" style="rhombus;whiteSpace=wrap;html=1;rounded=1;shadow=0;strokeWidth=1;glass=0;arcSize=17;" vertex="1" parent="WIyWlLk6GJQsqaUBKTNV-1">
          <mxGeometry x="180" y="860" width="80" height="80" as="geometry" />
        </mxCell>
        <mxCell id="EGNdU_tA9hTIrxnOJpRJ-19" value="add check point for current epoch" style="whiteSpace=wrap;html=1;rounded=1;shadow=0;strokeWidth=1;glass=0;arcSize=17;" vertex="1" parent="WIyWlLk6GJQsqaUBKTNV-1">
          <mxGeometry x="460" y="870" width="120" height="60" as="geometry" />
        </mxCell>
        <mxCell id="EGNdU_tA9hTIrxnOJpRJ-29" value="" style="edgeStyle=orthogonalEdgeStyle;rounded=0;orthogonalLoop=1;jettySize=auto;html=1;entryX=0;entryY=0.5;entryDx=0;entryDy=0;" edge="1" parent="WIyWlLk6GJQsqaUBKTNV-1" target="EGNdU_tA9hTIrxnOJpRJ-37">
          <mxGeometry relative="1" as="geometry">
            <mxPoint x="270" y="1065" as="sourcePoint" />
            <mxPoint x="440" y="900" as="targetPoint" />
            <Array as="points">
              <mxPoint x="350" y="1065" />
              <mxPoint x="350" y="1180" />
            </Array>
          </mxGeometry>
        </mxCell>
        <mxCell id="EGNdU_tA9hTIrxnOJpRJ-32" value="Yes" style="edgeStyle=orthogonalEdgeStyle;rounded=0;orthogonalLoop=1;jettySize=auto;html=1;entryX=0;entryY=0.5;entryDx=0;entryDy=0;exitX=1;exitY=1;exitDx=0;exitDy=0;" edge="1" parent="WIyWlLk6GJQsqaUBKTNV-1" source="EGNdU_tA9hTIrxnOJpRJ-21" target="EGNdU_tA9hTIrxnOJpRJ-31">
          <mxGeometry x="-0.76" y="15" relative="1" as="geometry">
            <Array as="points">
              <mxPoint x="350" y="1098" />
              <mxPoint x="350" y="1080" />
            </Array>
            <mxPoint as="offset" />
          </mxGeometry>
        </mxCell>
        <mxCell id="EGNdU_tA9hTIrxnOJpRJ-34" value="" style="edgeStyle=orthogonalEdgeStyle;rounded=0;orthogonalLoop=1;jettySize=auto;html=1;" edge="1" parent="WIyWlLk6GJQsqaUBKTNV-1" source="EGNdU_tA9hTIrxnOJpRJ-21" target="EGNdU_tA9hTIrxnOJpRJ-33">
          <mxGeometry relative="1" as="geometry" />
        </mxCell>
        <mxCell id="EGNdU_tA9hTIrxnOJpRJ-21" value="&lt;div&gt;last deposit&lt;br&gt;&lt;/div&gt;&lt;div&gt;=&lt;br&gt;&lt;/div&gt;&lt;div&gt;current epoch&lt;/div&gt;" style="rhombus;whiteSpace=wrap;html=1;rounded=1;shadow=0;strokeWidth=1;glass=0;arcSize=17;" vertex="1" parent="WIyWlLk6GJQsqaUBKTNV-1">
          <mxGeometry x="160" y="1000" width="120" height="130" as="geometry" />
        </mxCell>
        <mxCell id="EGNdU_tA9hTIrxnOJpRJ-26" value="add check point for next epoch" style="rounded=1;whiteSpace=wrap;html=1;shadow=0;glass=0;sketch=0;" vertex="1" parent="WIyWlLk6GJQsqaUBKTNV-1">
          <mxGeometry x="460" y="960" width="120" height="50" as="geometry" />
        </mxCell>
        <mxCell id="EGNdU_tA9hTIrxnOJpRJ-31" value="update check point for current epoch" style="rounded=1;whiteSpace=wrap;html=1;shadow=0;glass=0;sketch=0;" vertex="1" parent="WIyWlLk6GJQsqaUBKTNV-1">
          <mxGeometry x="460" y="1050" width="120" height="60" as="geometry" />
        </mxCell>
        <mxCell id="EGNdU_tA9hTIrxnOJpRJ-36" value="" style="edgeStyle=orthogonalEdgeStyle;rounded=0;orthogonalLoop=1;jettySize=auto;html=1;" edge="1" parent="WIyWlLk6GJQsqaUBKTNV-1" source="EGNdU_tA9hTIrxnOJpRJ-33" target="EGNdU_tA9hTIrxnOJpRJ-35">
          <mxGeometry relative="1" as="geometry" />
        </mxCell>
        <mxCell id="EGNdU_tA9hTIrxnOJpRJ-38" style="edgeStyle=orthogonalEdgeStyle;rounded=0;orthogonalLoop=1;jettySize=auto;html=1;entryX=0;entryY=0.75;entryDx=0;entryDy=0;" edge="1" parent="WIyWlLk6GJQsqaUBKTNV-1" source="EGNdU_tA9hTIrxnOJpRJ-33" target="EGNdU_tA9hTIrxnOJpRJ-31">
          <mxGeometry relative="1" as="geometry" />
        </mxCell>
        <mxCell id="EGNdU_tA9hTIrxnOJpRJ-39" style="edgeStyle=orthogonalEdgeStyle;rounded=0;orthogonalLoop=1;jettySize=auto;html=1;entryX=0;entryY=0.75;entryDx=0;entryDy=0;exitX=1;exitY=0;exitDx=0;exitDy=0;" edge="1" parent="WIyWlLk6GJQsqaUBKTNV-1" source="EGNdU_tA9hTIrxnOJpRJ-33" target="EGNdU_tA9hTIrxnOJpRJ-26">
          <mxGeometry relative="1" as="geometry" />
        </mxCell>
        <mxCell id="EGNdU_tA9hTIrxnOJpRJ-33" value="&lt;div&gt;last check&lt;br&gt;&lt;/div&gt;&lt;div&gt;=&lt;br&gt;&lt;/div&gt;&lt;div&gt;current epoch&lt;/div&gt;" style="rhombus;whiteSpace=wrap;html=1;rounded=1;shadow=0;strokeWidth=1;glass=0;arcSize=17;" vertex="1" parent="WIyWlLk6GJQsqaUBKTNV-1">
          <mxGeometry x="157.5" y="1180" width="125" height="120" as="geometry" />
        </mxCell>
        <mxCell id="EGNdU_tA9hTIrxnOJpRJ-40" style="edgeStyle=orthogonalEdgeStyle;rounded=0;orthogonalLoop=1;jettySize=auto;html=1;entryX=0;entryY=0.75;entryDx=0;entryDy=0;" edge="1" parent="WIyWlLk6GJQsqaUBKTNV-1" source="EGNdU_tA9hTIrxnOJpRJ-35" target="EGNdU_tA9hTIrxnOJpRJ-19">
          <mxGeometry relative="1" as="geometry">
            <Array as="points">
              <mxPoint x="390" y="1410" />
              <mxPoint x="390" y="915" />
            </Array>
          </mxGeometry>
        </mxCell>
        <mxCell id="EGNdU_tA9hTIrxnOJpRJ-41" style="edgeStyle=orthogonalEdgeStyle;rounded=0;orthogonalLoop=1;jettySize=auto;html=1;entryX=0;entryY=1;entryDx=0;entryDy=0;" edge="1" parent="WIyWlLk6GJQsqaUBKTNV-1" source="EGNdU_tA9hTIrxnOJpRJ-35" target="EGNdU_tA9hTIrxnOJpRJ-26">
          <mxGeometry relative="1" as="geometry">
            <Array as="points">
              <mxPoint x="410" y="1410" />
              <mxPoint x="410" y="1010" />
            </Array>
          </mxGeometry>
        </mxCell>
        <mxCell id="EGNdU_tA9hTIrxnOJpRJ-35" value="&lt;div&gt;last check&lt;br&gt;&lt;/div&gt;&lt;div&gt;&amp;lt;&lt;br&gt;&lt;/div&gt;&lt;div&gt;current epoch&lt;/div&gt;" style="rhombus;whiteSpace=wrap;html=1;rounded=1;shadow=0;strokeWidth=1;glass=0;arcSize=17;" vertex="1" parent="WIyWlLk6GJQsqaUBKTNV-1">
          <mxGeometry x="157.5" y="1350" width="125" height="120" as="geometry" />
        </mxCell>
        <mxCell id="EGNdU_tA9hTIrxnOJpRJ-37" value="update check point for next epoch" style="rounded=1;whiteSpace=wrap;html=1;shadow=0;glass=0;sketch=0;" vertex="1" parent="WIyWlLk6GJQsqaUBKTNV-1">
          <mxGeometry x="460" y="1150" width="120" height="60" as="geometry" />
        </mxCell>
        <mxCell id="EGNdU_tA9hTIrxnOJpRJ-44" value="" style="edgeStyle=orthogonalEdgeStyle;rounded=0;orthogonalLoop=1;jettySize=auto;html=1;" edge="1" parent="WIyWlLk6GJQsqaUBKTNV-1" source="EGNdU_tA9hTIrxnOJpRJ-42" target="EGNdU_tA9hTIrxnOJpRJ-43">
          <mxGeometry relative="1" as="geometry" />
        </mxCell>
        <mxCell id="EGNdU_tA9hTIrxnOJpRJ-42" value="" style="shape=curlyBracket;whiteSpace=wrap;html=1;rounded=1;shadow=0;glass=0;sketch=0;rotation=-180;" vertex="1" parent="WIyWlLk6GJQsqaUBKTNV-1">
          <mxGeometry x="630" y="880" width="20" height="320" as="geometry" />
        </mxCell>
        <mxCell id="EGNdU_tA9hTIrxnOJpRJ-46" value="" style="edgeStyle=orthogonalEdgeStyle;rounded=0;orthogonalLoop=1;jettySize=auto;html=1;" edge="1" parent="WIyWlLk6GJQsqaUBKTNV-1" source="EGNdU_tA9hTIrxnOJpRJ-43" target="EGNdU_tA9hTIrxnOJpRJ-45">
          <mxGeometry relative="1" as="geometry" />
        </mxCell>
        <mxCell id="EGNdU_tA9hTIrxnOJpRJ-43" value="update Pool Size" style="whiteSpace=wrap;html=1;rounded=1;shadow=0;glass=0;sketch=0;" vertex="1" parent="WIyWlLk6GJQsqaUBKTNV-1">
          <mxGeometry x="780" y="1010" width="120" height="60" as="geometry" />
        </mxCell>
        <mxCell id="EGNdU_tA9hTIrxnOJpRJ-45" value="emit Deposit Event" style="ellipse;whiteSpace=wrap;html=1;rounded=1;shadow=0;glass=0;sketch=0;" vertex="1" parent="WIyWlLk6GJQsqaUBKTNV-1">
          <mxGeometry x="785" y="1140" width="110" height="110" as="geometry" />
        </mxCell>
      </root>
    </mxGraphModel>
  </diagram>
</mxfile>
